<?xml version="1.0" encoding="iso-8859-1"?>
<!-- Generator: Adobe Illustrator 19.0.0, SVG Export Plug-In . SVG Version: 6.00 Build 0)  -->
<svg xmlns="http://www.w3.org/2000/svg" xmlns:xlink="http://www.w3.org/1999/xlink" version="1.1" id="Capa_1" x="0px" y="0px" viewBox="0 0 512 512" style="enable-background:new 0 0 512 512;" xml:space="preserve" width="512px" height="512px">
<g>
	<g>
		<path d="M361,452h-30v-30H181v30h-30c-16.569,0-30,13.431-30,30v15c0,8.284,6.716,15,15,15h240c8.284,0,15-6.716,15-15v-15    C391,465.431,377.569,452,361,452z" fill="#fd2600"/>
	</g>
</g>
<g>
	<g>
		<rect x="241" y="121" width="30" height="91" fill="#fd2600"/>
	</g>
</g>
<g>
	<g>
		<path d="M0,332v15c0,24.814,20.186,45,45,45h422c24.814,0,45-20.186,45-45v-15H0z" fill="#fd2600"/>
	</g>
</g>
<g>
	<g>
		<path d="M467,0H45C20.186,0,0,20.186,0,45v257h512V45C512,20.186,491.814,0,467,0z M181,227c0,8.291-6.709,15-15,15    s-15-6.709-15-15v-46h-45c-8.291,0-15-6.709-15-15v-60c0-8.291,6.709-15,15-15s15,6.709,15,15v45h30v-45c0-8.291,6.709-15,15-15    s15,6.709,15,15V227z M301,227c0,8.291-6.709,15-15,15h-60c-8.291,0-15-6.709-15-15V106c0-8.291,6.709-15,15-15h60    c8.291,0,15,6.709,15,15V227z M421,227c0,8.291-6.709,15-15,15c-8.291,0-15-6.709-15-15v-46h-45c-8.291,0-15-6.709-15-15v-60    c0-8.291,6.709-15,15-15c8.291,0,15,6.709,15,15v45h30v-45c0-8.291,6.709-15,15-15c8.291,0,15,6.709,15,15V227z" fill="#fd2600"/>
	</g>
</g>
<g>
</g>
<g>
</g>
<g>
</g>
<g>
</g>
<g>
</g>
<g>
</g>
<g>
</g>
<g>
</g>
<g>
</g>
<g>
</g>
<g>
</g>
<g>
</g>
<g>
</g>
<g>
</g>
<g>
</g>
</svg>
